<svg width="1440" height="767" xmlns="http://www.w3.org/2000/svg"><g><path d="M-111,-73L-117,203L-101,85Z" fill="#f8fff4" stroke="#f8fff4"/><path d="M-111,-73L-101,85L32,35Z" fill="#f9fdf7" stroke="#f9fdf7"/><path d="M-111,-73L32,35L91,-45Z" fill="#f6fcf4" stroke="#f6fcf4"/><path d="M-111,-73L91,-45L198,-123Z" fill="#f2faf0" stroke="#f2faf0"/><path d="M91,-45L32,35L207,38Z" fill="#edf9eb" stroke="#edf9eb"/><path d="M91,-45L207,38L198,-123Z" fill="#ebf7e8" stroke="#ebf7e8"/><path d="M198,-123L207,38L399,-51Z" fill="#e3f4e0" stroke="#e3f4e0"/><path d="M198,-123L399,-51L559,-46Z" fill="#daf1d7" stroke="#daf1d7"/><path d="M198,-123L559,-46L724,-69Z" fill="#d0ecce" stroke="#d0ecce"/><path d="M198,-123L724,-69L927,-121Z" fill="#c4e6c4" stroke="#c4e6c4"/><path d="M198,-123L927,-121L1232,-121Z" fill="#b2ddb6" stroke="#b2ddb6"/><path d="M399,-51L207,38L378,134Z" fill="#dcf3d7" stroke="#dcf3d7"/><path d="M399,-51L378,134L509,91Z" fill="#d1efcd" stroke="#d1efcd"/><path d="M399,-51L509,91L559,-46Z" fill="#d0ecce" stroke="#d0ecce"/><path d="M559,-46L509,91L732,45Z" fill="#c3e7c1" stroke="#c3e7c1"/><path d="M559,-46L732,45L724,-69Z" fill="#bee4bf" stroke="#bee4bf"/><path d="M724,-69L732,45L860,-85Z" fill="#b4deb7" stroke="#b4deb7"/><path d="M724,-69L860,-85L927,-121Z" fill="#add8b3" stroke="#add8b3"/><path d="M860,-85L732,45L787,94Z" fill="#b0dcb4" stroke="#b0dcb4"/><path d="M860,-85L787,94L983,37Z" fill="#a7d5af" stroke="#a7d5af"/><path d="M860,-85L983,37L927,-121Z" fill="#a3d2ad" stroke="#a3d2ad"/><path d="M927,-121L983,37L1082,-84Z" fill="#9bcca8" stroke="#9bcca8"/><path d="M927,-121L1082,-84L1232,-121Z" fill="#91c5a2" stroke="#91c5a2"/><path d="M1082,-84L983,37L1171,75Z" fill="#90c5a1" stroke="#90c5a1"/><path d="M1082,-84L1171,75L1232,-121Z" fill="#88bf9d" stroke="#88bf9d"/><path d="M1232,-121L1171,75L1282,32Z" fill="#81ba98" stroke="#81ba98"/><path d="M1232,-121L1282,32L1405,-118Z" fill="#80b393" stroke="#80b393"/><path d="M1405,-118L1282,32L1458,23Z" fill="#80ad8e" stroke="#80ad8e"/><path d="M1405,-118L1458,23L1572,-25Z" fill="#80a687" stroke="#80a687"/><path d="M1572,-25L1458,23L1543,51Z" fill="#7ea282" stroke="#7ea282"/><path d="M1572,-25L1543,51L1599,208Z" fill="#799e78" stroke="#799e78"/><path d="M-101,85L-117,203L66,255Z" fill="#eafde4" stroke="#eafde4"/><path d="M-101,85L66,255L32,35Z" fill="#ebfce7" stroke="#ebfce7"/><path d="M32,35L66,255L195,191Z" fill="#e1f9db" stroke="#e1f9db"/><path d="M32,35L195,191L207,38Z" fill="#e5f8e0" stroke="#e5f8e0"/><path d="M207,38L195,191L378,134Z" fill="#d9f5d3" stroke="#d9f5d3"/><path d="M378,134L195,191L322,266Z" fill="#d0f3c8" stroke="#d0f3c8"/><path d="M378,134L322,266L584,230Z" fill="#c2eebb" stroke="#c2eebb"/><path d="M378,134L584,230L509,91Z" fill="#c3ecbe" stroke="#c3ecbe"/><path d="M509,91L584,230L683,224Z" fill="#b7e7b2" stroke="#b7e7b2"/><path d="M509,91L683,224L732,45Z" fill="#b7e5b4" stroke="#b7e5b4"/><path d="M732,45L683,224L787,94Z" fill="#aee1ac" stroke="#aee1ac"/><path d="M787,94L683,224L787,243Z" fill="#a6dfa4" stroke="#a6dfa4"/><path d="M787,94L787,243L992,254Z" fill="#99d79c" stroke="#99d79c"/><path d="M787,94L992,254L983,37Z" fill="#98d29f" stroke="#98d29f"/><path d="M983,37L992,254L1171,75Z" fill="#8ac897" stroke="#8ac897"/><path d="M1171,75L992,254L1176,264Z" fill="#7cc28a" stroke="#7cc28a"/><path d="M1171,75L1176,264L1299,190Z" fill="#73bb86" stroke="#73bb86"/><path d="M1171,75L1299,190L1282,32Z" fill="#77b88c" stroke="#77b88c"/><path d="M1282,32L1299,190L1458,23Z" fill="#79b087" stroke="#79b087"/><path d="M1458,23L1299,190L1367,269Z" fill="#72ae7d" stroke="#72ae7d"/><path d="M1458,23L1367,269L1543,51Z" fill="#76a77c" stroke="#76a77c"/><path d="M1543,51L1367,269L1599,208Z" fill="#71a472" stroke="#71a472"/><path d="M-117,203L-91,859L-96,574Z" fill="#9ad8aa" stroke="#9ad8aa"/><path d="M-117,203L-96,574L-59,427Z" fill="#bef1c0" stroke="#bef1c0"/><path d="M-117,203L-59,427L66,255Z" fill="#d2f7cf" stroke="#d2f7cf"/><path d="M66,255L-59,427L110,373Z" fill="#c0f2be" stroke="#c0f2be"/><path d="M66,255L110,373L204,337Z" fill="#c0f1bd" stroke="#c0f1bd"/><path d="M66,255L204,337L195,191Z" fill="#ccf3c7" stroke="#ccf3c7"/><path d="M195,191L204,337L322,266Z" fill="#c5f1c0" stroke="#c5f1c0"/><path d="M322,266L204,337L386,393Z" fill="#b2ecae" stroke="#b2ecae"/><path d="M322,266L386,393L557,331Z" fill="#a8e8a5" stroke="#a8e8a5"/><path d="M322,266L557,331L584,230Z" fill="#ade8a9" stroke="#ade8a9"/><path d="M584,230L557,331L683,224Z" fill="#a5e3a2" stroke="#a5e3a2"/><path d="M683,224L557,331L679,414Z" fill="#95de94" stroke="#95de94"/><path d="M683,224L679,414L788,360Z" fill="#8bda8c" stroke="#8bda8c"/><path d="M683,224L788,360L787,243Z" fill="#93db94" stroke="#93db94"/><path d="M787,243L788,360L992,254Z" fill="#85d28b" stroke="#85d28b"/><path d="M992,254L788,360L1011,378Z" fill="#73ca7d" stroke="#73ca7d"/><path d="M992,254L1011,378L1176,264Z" fill="#6cc17b" stroke="#6cc17b"/><path d="M1176,264L1011,378L1082,409Z" fill="#5dbc6f" stroke="#5dbc6f"/><path d="M1176,264L1082,409L1268,393Z" fill="#52b568" stroke="#52b568"/><path d="M1176,264L1268,393L1367,269Z" fill="#56b06a" stroke="#56b06a"/><path d="M1176,264L1367,269L1299,190Z" fill="#64b377" stroke="#64b377"/><path d="M1367,269L1268,393L1469,365Z" fill="#4ea65d" stroke="#4ea65d"/><path d="M1367,269L1469,365L1599,208Z" fill="#5ca162" stroke="#5ca162"/><path d="M1599,208L1469,365L1539,371Z" fill="#549b57" stroke="#549b57"/><path d="M1599,208L1539,371L1620,546Z" fill="#479348" stroke="#479348"/><path d="M1599,208L1620,546L1633,619Z" fill="#32833b" stroke="#32833b"/><path d="M-59,427L-96,574L126,559Z" fill="#9adaa7" stroke="#9adaa7"/><path d="M-59,427L126,559L110,373Z" fill="#a6e3ac" stroke="#a6e3ac"/><path d="M110,373L126,559L270,490Z" fill="#99dda1" stroke="#99dda1"/><path d="M110,373L270,490L204,337Z" fill="#aae9aa" stroke="#aae9aa"/><path d="M204,337L270,490L386,393Z" fill="#a1e5a2" stroke="#a1e5a2"/><path d="M386,393L270,490L383,545Z" fill="#8cd793" stroke="#8cd793"/><path d="M386,393L383,545L515,556Z" fill="#7fd089" stroke="#7fd089"/><path d="M386,393L515,556L557,331Z" fill="#8bda8f" stroke="#8bda8f"/><path d="M557,331L515,556L617,540Z" fill="#77ce81" stroke="#77ce81"/><path d="M557,331L617,540L679,414Z" fill="#7ed483" stroke="#7ed483"/><path d="M679,414L617,540L808,497Z" fill="#68c674" stroke="#68c674"/><path d="M679,414L808,497L788,360Z" fill="#71cd79" stroke="#71cd79"/><path d="M788,360L808,497L1011,378Z" fill="#67c673" stroke="#67c673"/><path d="M1011,378L808,497L1007,487Z" fill="#54b968" stroke="#54b968"/><path d="M1011,378L1007,487L1082,409Z" fill="#52b766" stroke="#52b766"/><path d="M1082,409L1007,487L1095,485Z" fill="#45af5f" stroke="#45af5f"/><path d="M1082,409L1095,485L1268,393Z" fill="#44ad5e" stroke="#44ad5e"/><path d="M1268,393L1095,485L1254,523Z" fill="#34a254" stroke="#34a254"/><path d="M1268,393L1254,523L1468,528Z" fill="#2d9549" stroke="#2d9549"/><path d="M1268,393L1468,528L1469,365Z" fill="#3a994c" stroke="#3a994c"/><path d="M1469,365L1468,528L1539,371Z" fill="#3c9447" stroke="#3c9447"/><path d="M1539,371L1468,528L1620,546Z" fill="#2c853b" stroke="#2c853b"/><path d="M-96,574L-91,859L-29,652Z" fill="#7cbc91" stroke="#7cbc91"/><path d="M-96,574L-29,652L126,559Z" fill="#86cc9b" stroke="#86cc9b"/><path d="M126,559L-29,652L27,660Z" fill="#7cc693" stroke="#7cc693"/><path d="M126,559L27,660L224,727Z" fill="#70bf89" stroke="#70bf89"/><path d="M126,559L224,727L270,490Z" fill="#79c78c" stroke="#79c78c"/><path d="M270,490L224,727L387,617Z" fill="#6dc182" stroke="#6dc182"/><path d="M270,490L387,617L383,545Z" fill="#79ca88" stroke="#79ca88"/><path d="M383,545L387,617L515,556Z" fill="#6cc37d" stroke="#6cc37d"/><path d="M515,556L387,617L570,639Z" fill="#5eba73" stroke="#5eba73"/><path d="M515,556L570,639L617,540Z" fill="#5dbc71" stroke="#5dbc71"/><path d="M617,540L570,639L703,687Z" fill="#4cb165" stroke="#4cb165"/><path d="M617,540L703,687L808,497Z" fill="#50b665" stroke="#50b665"/><path d="M808,497L703,687L846,689Z" fill="#3ba858" stroke="#3ba858"/><path d="M808,497L846,689L1007,487Z" fill="#40ab5b" stroke="#40ab5b"/><path d="M1007,487L846,689L1034,660Z" fill="#2a9c4e" stroke="#2a9c4e"/><path d="M1007,487L1034,660L1095,485Z" fill="#32a153" stroke="#32a153"/><path d="M1095,485L1034,660L1179,653Z" fill="#1e9247" stroke="#1e9247"/><path d="M1095,485L1179,653L1254,523Z" fill="#219549" stroke="#219549"/><path d="M1254,523L1179,653L1294,634Z" fill="#0e873c" stroke="#0e873c"/><path d="M1254,523L1294,634L1468,528Z" fill="#18873c" stroke="#18873c"/><path d="M1468,528L1294,634L1481,661Z" fill="#0d7930" stroke="#0d7930"/><path d="M1468,528L1481,661L1620,546Z" fill="#14752d" stroke="#14752d"/><path d="M1620,546L1481,661L1633,619Z" fill="#0c6b25" stroke="#0c6b25"/><path d="M-29,652L-91,859L27,660Z" fill="#79b689" stroke="#79b689"/><path d="M27,660L-91,859L130,858Z" fill="#75a87b" stroke="#75a87b"/><path d="M27,660L130,858L168,842Z" fill="#6fa775" stroke="#6fa775"/><path d="M27,660L168,842L224,727Z" fill="#6dae79" stroke="#6dae79"/><path d="M224,727L168,842L281,937Z" fill="#679b65" stroke="#679b65"/><path d="M224,727L281,937L423,810Z" fill="#619b60" stroke="#619b60"/><path d="M224,727L423,810L387,617Z" fill="#5eac6e" stroke="#5eac6e"/><path d="M387,617L423,810L570,639Z" fill="#54ad69" stroke="#54ad69"/><path d="M570,639L423,810L638,799Z" fill="#4b9e58" stroke="#4b9e58"/><path d="M570,639L638,799L703,687Z" fill="#42a157" stroke="#42a157"/><path d="M703,687L638,799L794,846Z" fill="#3b9246" stroke="#3b9246"/><path d="M703,687L794,846L846,689Z" fill="#339347" stroke="#339347"/><path d="M846,689L794,846L988,787Z" fill="#29863b" stroke="#29863b"/><path d="M846,689L988,787L1034,660Z" fill="#208b3f" stroke="#208b3f"/><path d="M1034,660L988,787L1162,781Z" fill="#147d33" stroke="#147d33"/><path d="M1034,660L1162,781L1179,653Z" fill="#0d7f36" stroke="#0d7f36"/><path d="M1179,653L1162,781L1294,634Z" fill="#037a31" stroke="#037a31"/><path d="M1294,634L1162,781L1257,833Z" fill="#006d26" stroke="#006d26"/><path d="M1294,634L1257,833L1458,863Z" fill="#00611b" stroke="#00611b"/><path d="M1294,634L1458,863L1481,661Z" fill="#00651f" stroke="#00651f"/><path d="M1481,661L1458,863L1535,794Z" fill="#005511" stroke="#005511"/><path d="M1481,661L1535,794L1633,619Z" fill="#005f1a" stroke="#005f1a"/><path d="M1633,619L1535,794L1630,940Z" fill="#004b09" stroke="#004b09"/><path d="M-91,859L-62,938L130,858Z" fill="#779875" stroke="#779875"/><path d="M130,858L-62,938L88,1022Z" fill="#738d71" stroke="#738d71"/><path d="M130,858L88,1022L281,937Z" fill="#6b8a68" stroke="#6b8a68"/><path d="M130,858L281,937L168,842Z" fill="#699466" stroke="#699466"/><path d="M423,810L281,937L394,919Z" fill="#5d8d59" stroke="#5d8d59"/><path d="M423,810L394,919L531,876Z" fill="#558d52" stroke="#558d52"/><path d="M423,810L531,876L638,799Z" fill="#4d914d" stroke="#4d914d"/><path d="M531,876L394,919L556,1009Z" fill="#50804e" stroke="#50804e"/><path d="M531,876L556,1009L668,1028Z" fill="#477547" stroke="#477547"/><path d="M531,876L668,1028L638,799Z" fill="#458044" stroke="#458044"/><path d="M638,799L668,1028L794,846Z" fill="#3c7e3d" stroke="#3c7e3d"/><path d="M794,846L668,1028L842,992Z" fill="#356e38" stroke="#356e38"/><path d="M794,846L842,992L939,979Z" fill="#2b6a32" stroke="#2b6a32"/><path d="M794,846L939,979L988,787Z" fill="#25722f" stroke="#25722f"/><path d="M988,787L939,979L1171,937Z" fill="#176226" stroke="#176226"/><path d="M988,787L1171,937L1162,781Z" fill="#0f6922" stroke="#0f6922"/><path d="M1162,781L1171,937L1257,833Z" fill="#055f1b" stroke="#055f1b"/><path d="M1257,833L1171,937L1242,927Z" fill="#025419" stroke="#025419"/><path d="M1257,833L1242,927L1394,964Z" fill="#004d14" stroke="#004d14"/><path d="M1257,833L1394,964L1458,863Z" fill="#004b0f" stroke="#004b0f"/><path d="M1458,863L1394,964L1630,940Z" fill="#003a07" stroke="#003a07"/><path d="M1458,863L1630,940L1535,794Z" fill="#004103" stroke="#004103"/><path d="M88,1022L668,1028L556,1009Z" fill="#567353" stroke="#567353"/><path d="M88,1022L556,1009L281,937Z" fill="#617d5e" stroke="#617d5e"/><path d="M281,937L556,1009L394,919Z" fill="#588055" stroke="#588055"/><path d="M668,1028L1394,964L939,979Z" fill="#1b5628" stroke="#1b5628"/><path d="M668,1028L939,979L842,992Z" fill="#2f6235" stroke="#2f6235"/><path d="M939,979L1394,964L1171,937Z" fill="#084e1d" stroke="#084e1d"/><path d="M1171,937L1394,964L1242,927Z" fill="#004916" stroke="#004916"/></g></svg>
